# xmcd
#
# Track frame offsets:
#	150
#	16248
#	31930
#	45866
#	65319
#	80391
#	91917
#	105369
#	119477
#	138537
#	150319
#	165347
#	176377
#	201224
#	211762
#	227040
#	238458
#	259289
#
# Disc length: 3753 seconds
#
# Revision: 0
# Processed by: cddbd v1.5.2PL0 Copyright (c) Steve Scherf et al.
# Submitted via: EZCDAudioConverter 8.3.2.1
#
DISCID=dc0ea712
DTITLE=Various Artist - Love Songs On The Radio
DYEAR=1999
DGENRE=Pop
TTITLE0=George Baker - Uma Paloma Blanca
TTITLE1=Demis Roussos - Rain And Tears
TTITLE2=Brotherhood Of Man - Save Your Kisses For Me
TTITLE3=Captain and Tennielle - Do That To Me One More Time
TTITLE4=Petula Clark - Downtown
TTITLE5=The New Seekers - I'd Like To Teach The World To Sing
TTITLE6=Brotherhood Of Man - United We Stand
TTITLE7=The New Seekers - Never Ending Song Of Love
TTITLE8=The Marmalade - Reflections Of My Life
TTITLE9=Gerry And The Pacemakers - Don't Let The Sun Catch You Crying
TTITLE10=Petula Clark - This Is My Song
TTITLE11=Frankie Laine - Hummingbird
TTITLE12=Demis Roussos - My Friend The Wind
TTITLE13=Frankie Laine - I Believe
TTITLE14=George McRae - Rock Your Baby
TTITLE15=Frankie Laine - Rose, Rose, I Love You
TTITLE16=Pussycat - Mississippi
TTITLE17=Demis Roussos - Spring, Summer, Winter And Fall
EXTD=
EXTT0=
EXTT1=
EXTT2=
EXTT3=
EXTT4=
EXTT5=
EXTT6=
EXTT7=
EXTT8=
EXTT9=
EXTT10=
EXTT11=
EXTT12=
EXTT13=
EXTT14=
EXTT15=
EXTT16=
EXTT17=
PLAYORDER=
